<?xml version="1.0" encoding="utf-8"?>
<svg xmlns="http://www.w3.org/2000/svg" height="256" width="256" viewBox="0 0 256 256">
  <g>
    <path id="path1" transform="rotate(0,128,128) translate(59,93.5) scale(4.3125,4.3125)  " fill="#FFFF00" d="M27,11L29,11 29,13 27,13z M10,11L25,11 25,13 10,13z M3,11L8,11 8,13 3,13z M23,7L29,7 29,9 23,9z M19,7L21,7 21,9 19,9z M15,7L17,7 17,9 15,9z M11,7L13,7 13,9 11,9z M7,7L9,7 9,9 7,9z M3,7L5,7 5,9 3,9z M27,3L29,3 29,5 27,5z M23,3L25,3 25,5 23,5z M19,3L21,3 21,5 19,5z M15,3L17,3 17,5 15,5z M11,3L13,3 13,5 11,5z M7,3L9,3 9,5 7,5z M3,3L5,3 5,5 3,5z M1,1L1,15 31,15 31,1z M0.5,0L31.5,0C31.775999,0,32,0.22399998,32,0.5L32,15.5C32,15.776,31.775999,16,31.5,16L0.5,16C0.22399998,16,0,15.776,0,15.5L0,0.5C0,0.22399998,0.22399998,0,0.5,0z" />
  </g>
</svg>

